<svg class="rich-terminal" viewBox="0 0 1482 928.4" xmlns="http://www.w3.org/2000/svg">
    <!-- Generated with Rich https://www.textualize.io -->
    <style>

    @font-face {
        font-family: "Fira Code";
        src: local("FiraCode-Regular"),
                url("https://cdnjs.cloudflare.com/ajax/libs/firacode/6.2.0/woff2/FiraCode-Regular.woff2") format("woff2"),
                url("https://cdnjs.cloudflare.com/ajax/libs/firacode/6.2.0/woff/FiraCode-Regular.woff") format("woff");
        font-style: normal;
        font-weight: 400;
    }
    @font-face {
        font-family: "Fira Code";
        src: local("FiraCode-Bold"),
                url("https://cdnjs.cloudflare.com/ajax/libs/firacode/6.2.0/woff2/FiraCode-Bold.woff2") format("woff2"),
                url("https://cdnjs.cloudflare.com/ajax/libs/firacode/6.2.0/woff/FiraCode-Bold.woff") format("woff");
        font-style: bold;
        font-weight: 700;
    }

    .terminal-864303689-matrix {
        font-family: Fira Code, monospace;
        font-size: 20px;
        line-height: 24.4px;
        font-variant-east-asian: full-width;
    }

    .terminal-864303689-title {
        font-size: 18px;
        font-weight: bold;
        font-family: arial;
    }

    .terminal-864303689-r1 { fill: #c5c8c6 }
.terminal-864303689-r2 { fill: #9c9ea0 }
.terminal-864303689-r3 { fill: #af6d20 }
.terminal-864303689-r4 { fill: #e0e0e0 }
.terminal-864303689-r5 { fill: #f4005f }
.terminal-864303689-r6 { fill: #9d65ff;text-decoration: underline; }
.terminal-864303689-r7 { fill: #9c9ea0;font-weight: bold }
.terminal-864303689-r8 { fill: #0f6db8 }
.terminal-864303689-r9 { fill: #11496f }
.terminal-864303689-r10 { fill: #383d43 }
.terminal-864303689-r11 { fill: #ffa62b;font-weight: bold }
.terminal-864303689-r12 { fill: #394149 }
    </style>

    <defs>
    <clipPath id="terminal-864303689-clip-terminal">
      <rect x="0" y="0" width="1463.0" height="877.4" />
    </clipPath>
    <clipPath id="terminal-864303689-line-0">
    <rect x="0" y="1.5" width="1464" height="24.65"/>
            </clipPath>
<clipPath id="terminal-864303689-line-1">
    <rect x="0" y="25.9" width="1464" height="24.65"/>
            </clipPath>
<clipPath id="terminal-864303689-line-2">
    <rect x="0" y="50.3" width="1464" height="24.65"/>
            </clipPath>
<clipPath id="terminal-864303689-line-3">
    <rect x="0" y="74.7" width="1464" height="24.65"/>
            </clipPath>
<clipPath id="terminal-864303689-line-4">
    <rect x="0" y="99.1" width="1464" height="24.65"/>
            </clipPath>
<clipPath id="terminal-864303689-line-5">
    <rect x="0" y="123.5" width="1464" height="24.65"/>
            </clipPath>
<clipPath id="terminal-864303689-line-6">
    <rect x="0" y="147.9" width="1464" height="24.65"/>
            </clipPath>
<clipPath id="terminal-864303689-line-7">
    <rect x="0" y="172.3" width="1464" height="24.65"/>
            </clipPath>
<clipPath id="terminal-864303689-line-8">
    <rect x="0" y="196.7" width="1464" height="24.65"/>
            </clipPath>
<clipPath id="terminal-864303689-line-9">
    <rect x="0" y="221.1" width="1464" height="24.65"/>
            </clipPath>
<clipPath id="terminal-864303689-line-10">
    <rect x="0" y="245.5" width="1464" height="24.65"/>
            </clipPath>
<clipPath id="terminal-864303689-line-11">
    <rect x="0" y="269.9" width="1464" height="24.65"/>
            </clipPath>
<clipPath id="terminal-864303689-line-12">
    <rect x="0" y="294.3" width="1464" height="24.65"/>
            </clipPath>
<clipPath id="terminal-864303689-line-13">
    <rect x="0" y="318.7" width="1464" height="24.65"/>
            </clipPath>
<clipPath id="terminal-864303689-line-14">
    <rect x="0" y="343.1" width="1464" height="24.65"/>
            </clipPath>
<clipPath id="terminal-864303689-line-15">
    <rect x="0" y="367.5" width="1464" height="24.65"/>
            </clipPath>
<clipPath id="terminal-864303689-line-16">
    <rect x="0" y="391.9" width="1464" height="24.65"/>
            </clipPath>
<clipPath id="terminal-864303689-line-17">
    <rect x="0" y="416.3" width="1464" height="24.65"/>
            </clipPath>
<clipPath id="terminal-864303689-line-18">
    <rect x="0" y="440.7" width="1464" height="24.65"/>
            </clipPath>
<clipPath id="terminal-864303689-line-19">
    <rect x="0" y="465.1" width="1464" height="24.65"/>
            </clipPath>
<clipPath id="terminal-864303689-line-20">
    <rect x="0" y="489.5" width="1464" height="24.65"/>
            </clipPath>
<clipPath id="terminal-864303689-line-21">
    <rect x="0" y="513.9" width="1464" height="24.65"/>
            </clipPath>
<clipPath id="terminal-864303689-line-22">
    <rect x="0" y="538.3" width="1464" height="24.65"/>
            </clipPath>
<clipPath id="terminal-864303689-line-23">
    <rect x="0" y="562.7" width="1464" height="24.65"/>
            </clipPath>
<clipPath id="terminal-864303689-line-24">
    <rect x="0" y="587.1" width="1464" height="24.65"/>
            </clipPath>
<clipPath id="terminal-864303689-line-25">
    <rect x="0" y="611.5" width="1464" height="24.65"/>
            </clipPath>
<clipPath id="terminal-864303689-line-26">
    <rect x="0" y="635.9" width="1464" height="24.65"/>
            </clipPath>
<clipPath id="terminal-864303689-line-27">
    <rect x="0" y="660.3" width="1464" height="24.65"/>
            </clipPath>
<clipPath id="terminal-864303689-line-28">
    <rect x="0" y="684.7" width="1464" height="24.65"/>
            </clipPath>
<clipPath id="terminal-864303689-line-29">
    <rect x="0" y="709.1" width="1464" height="24.65"/>
            </clipPath>
<clipPath id="terminal-864303689-line-30">
    <rect x="0" y="733.5" width="1464" height="24.65"/>
            </clipPath>
<clipPath id="terminal-864303689-line-31">
    <rect x="0" y="757.9" width="1464" height="24.65"/>
            </clipPath>
<clipPath id="terminal-864303689-line-32">
    <rect x="0" y="782.3" width="1464" height="24.65"/>
            </clipPath>
<clipPath id="terminal-864303689-line-33">
    <rect x="0" y="806.7" width="1464" height="24.65"/>
            </clipPath>
<clipPath id="terminal-864303689-line-34">
    <rect x="0" y="831.1" width="1464" height="24.65"/>
            </clipPath>
    </defs>

    <rect fill="#292929" stroke="rgba(255,255,255,0.35)" stroke-width="1" x="1" y="1" width="1480" height="926.4" rx="8"/><text class="terminal-864303689-title" fill="#c5c8c6" text-anchor="middle" x="740" y="27">Agent&#160;Zero&#160;CLI</text>
            <g transform="translate(26,22)">
            <circle cx="0" cy="0" r="7" fill="#ff5f57"/>
            <circle cx="22" cy="0" r="7" fill="#febc2e"/>
            <circle cx="44" cy="0" r="7" fill="#28c840"/>
            </g>
        
    <g transform="translate(9, 41)" clip-path="url(#terminal-864303689-clip-terminal)">
    <rect fill="#191e24" x="0" y="1.5" width="1464" height="24.65" shape-rendering="crispEdges"/><rect fill="#191e24" x="0" y="25.9" width="12.2" height="24.65" shape-rendering="crispEdges"/><rect fill="#191e24" x="12.2" y="25.9" width="292.8" height="24.65" shape-rendering="crispEdges"/><rect fill="#191e24" x="305" y="25.9" width="36.6" height="24.65" shape-rendering="crispEdges"/><rect fill="#191e24" x="341.6" y="25.9" width="1085.8" height="24.65" shape-rendering="crispEdges"/><rect fill="#000000" x="1427.4" y="25.9" width="24.4" height="24.65" shape-rendering="crispEdges"/><rect fill="#191e24" x="1451.8" y="25.9" width="12.2" height="24.65" shape-rendering="crispEdges"/><rect fill="#191e24" x="0" y="50.3" width="12.2" height="24.65" shape-rendering="crispEdges"/><rect fill="#191e24" x="12.2" y="50.3" width="695.4" height="24.65" shape-rendering="crispEdges"/><rect fill="#191e24" x="707.6" y="50.3" width="719.8" height="24.65" shape-rendering="crispEdges"/><rect fill="#000000" x="1427.4" y="50.3" width="24.4" height="24.65" shape-rendering="crispEdges"/><rect fill="#191e24" x="1451.8" y="50.3" width="12.2" height="24.65" shape-rendering="crispEdges"/><rect fill="#191e24" x="0" y="74.7" width="12.2" height="24.65" shape-rendering="crispEdges"/><rect fill="#191e24" x="12.2" y="74.7" width="390.4" height="24.65" shape-rendering="crispEdges"/><rect fill="#191e24" x="402.6" y="74.7" width="268.4" height="24.65" shape-rendering="crispEdges"/><rect fill="#191e24" x="671" y="74.7" width="756.4" height="24.65" shape-rendering="crispEdges"/><rect fill="#000000" x="1427.4" y="74.7" width="24.4" height="24.65" shape-rendering="crispEdges"/><rect fill="#191e24" x="1451.8" y="74.7" width="12.2" height="24.65" shape-rendering="crispEdges"/><rect fill="#191e24" x="0" y="99.1" width="12.2" height="24.65" shape-rendering="crispEdges"/><rect fill="#191e24" x="12.2" y="99.1" width="817.4" height="24.65" shape-rendering="crispEdges"/><rect fill="#191e24" x="829.6" y="99.1" width="597.8" height="24.65" shape-rendering="crispEdges"/><rect fill="#000000" x="1427.4" y="99.1" width="24.4" height="24.65" shape-rendering="crispEdges"/><rect fill="#191e24" x="1451.8" y="99.1" width="12.2" height="24.65" shape-rendering="crispEdges"/><rect fill="#191e24" x="0" y="123.5" width="12.2" height="24.65" shape-rendering="crispEdges"/><rect fill="#191e24" x="12.2" y="123.5" width="244" height="24.65" shape-rendering="crispEdges"/><rect fill="#191e24" x="256.2" y="123.5" width="12.2" height="24.65" shape-rendering="crispEdges"/><rect fill="#191e24" x="268.4" y="123.5" width="122" height="24.65" shape-rendering="crispEdges"/><rect fill="#191e24" x="390.4" y="123.5" width="12.2" height="24.65" shape-rendering="crispEdges"/><rect fill="#191e24" x="402.6" y="123.5" width="12.2" height="24.65" shape-rendering="crispEdges"/><rect fill="#191e24" x="414.8" y="123.5" width="1012.6" height="24.65" shape-rendering="crispEdges"/><rect fill="#000000" x="1427.4" y="123.5" width="24.4" height="24.65" shape-rendering="crispEdges"/><rect fill="#191e24" x="1451.8" y="123.5" width="12.2" height="24.65" shape-rendering="crispEdges"/><rect fill="#191e24" x="0" y="147.9" width="12.2" height="24.65" shape-rendering="crispEdges"/><rect fill="#191e24" x="12.2" y="147.9" width="1415.2" height="24.65" shape-rendering="crispEdges"/><rect fill="#000000" x="1427.4" y="147.9" width="24.4" height="24.65" shape-rendering="crispEdges"/><rect fill="#191e24" x="1451.8" y="147.9" width="12.2" height="24.65" shape-rendering="crispEdges"/><rect fill="#191e24" x="0" y="172.3" width="12.2" height="24.65" shape-rendering="crispEdges"/><rect fill="#191e24" x="12.2" y="172.3" width="1415.2" height="24.65" shape-rendering="crispEdges"/><rect fill="#000000" x="1427.4" y="172.3" width="24.4" height="24.65" shape-rendering="crispEdges"/><rect fill="#191e24" x="1451.8" y="172.3" width="12.2" height="24.65" shape-rendering="crispEdges"/><rect fill="#191e24" x="0" y="196.7" width="12.2" height="24.65" shape-rendering="crispEdges"/><rect fill="#191e24" x="12.2" y="196.7" width="1415.2" height="24.65" shape-rendering="crispEdges"/><rect fill="#000000" x="1427.4" y="196.7" width="24.4" height="24.65" shape-rendering="crispEdges"/><rect fill="#191e24" x="1451.8" y="196.7" width="12.2" height="24.65" shape-rendering="crispEdges"/><rect fill="#191e24" x="0" y="221.1" width="12.2" height="24.65" shape-rendering="crispEdges"/><rect fill="#191e24" x="12.2" y="221.1" width="1415.2" height="24.65" shape-rendering="crispEdges"/><rect fill="#000000" x="1427.4" y="221.1" width="24.4" height="24.65" shape-rendering="crispEdges"/><rect fill="#191e24" x="1451.8" y="221.1" width="12.2" height="24.65" shape-rendering="crispEdges"/><rect fill="#191e24" x="0" y="245.5" width="12.2" height="24.65" shape-rendering="crispEdges"/><rect fill="#191e24" x="12.2" y="245.5" width="1415.2" height="24.65" shape-rendering="crispEdges"/><rect fill="#000000" x="1427.4" y="245.5" width="24.4" height="24.65" shape-rendering="crispEdges"/><rect fill="#191e24" x="1451.8" y="245.5" width="12.2" height="24.65" shape-rendering="crispEdges"/><rect fill="#191e24" x="0" y="269.9" width="12.2" height="24.65" shape-rendering="crispEdges"/><rect fill="#191e24" x="12.2" y="269.9" width="1415.2" height="24.65" shape-rendering="crispEdges"/><rect fill="#000000" x="1427.4" y="269.9" width="24.4" height="24.65" shape-rendering="crispEdges"/><rect fill="#191e24" x="1451.8" y="269.9" width="12.2" height="24.65" shape-rendering="crispEdges"/><rect fill="#191e24" x="0" y="294.3" width="12.2" height="24.65" shape-rendering="crispEdges"/><rect fill="#191e24" x="12.2" y="294.3" width="1415.2" height="24.65" shape-rendering="crispEdges"/><rect fill="#000000" x="1427.4" y="294.3" width="24.4" height="24.65" shape-rendering="crispEdges"/><rect fill="#191e24" x="1451.8" y="294.3" width="12.2" height="24.65" shape-rendering="crispEdges"/><rect fill="#191e24" x="0" y="318.7" width="12.2" height="24.65" shape-rendering="crispEdges"/><rect fill="#191e24" x="12.2" y="318.7" width="1415.2" height="24.65" shape-rendering="crispEdges"/><rect fill="#000000" x="1427.4" y="318.7" width="24.4" height="24.65" shape-rendering="crispEdges"/><rect fill="#191e24" x="1451.8" y="318.7" width="12.2" height="24.65" shape-rendering="crispEdges"/><rect fill="#191e24" x="0" y="343.1" width="12.2" height="24.65" shape-rendering="crispEdges"/><rect fill="#191e24" x="12.2" y="343.1" width="1415.2" height="24.65" shape-rendering="crispEdges"/><rect fill="#000000" x="1427.4" y="343.1" width="24.4" height="24.65" shape-rendering="crispEdges"/><rect fill="#191e24" x="1451.8" y="343.1" width="12.2" height="24.65" shape-rendering="crispEdges"/><rect fill="#191e24" x="0" y="367.5" width="12.2" height="24.65" shape-rendering="crispEdges"/><rect fill="#191e24" x="12.2" y="367.5" width="1415.2" height="24.65" shape-rendering="crispEdges"/><rect fill="#000000" x="1427.4" y="367.5" width="24.4" height="24.65" shape-rendering="crispEdges"/><rect fill="#191e24" x="1451.8" y="367.5" width="12.2" height="24.65" shape-rendering="crispEdges"/><rect fill="#191e24" x="0" y="391.9" width="12.2" height="24.65" shape-rendering="crispEdges"/><rect fill="#191e24" x="12.2" y="391.9" width="1415.2" height="24.65" shape-rendering="crispEdges"/><rect fill="#000000" x="1427.4" y="391.9" width="24.4" height="24.65" shape-rendering="crispEdges"/><rect fill="#191e24" x="1451.8" y="391.9" width="12.2" height="24.65" shape-rendering="crispEdges"/><rect fill="#191e24" x="0" y="416.3" width="12.2" height="24.65" shape-rendering="crispEdges"/><rect fill="#191e24" x="12.2" y="416.3" width="1415.2" height="24.65" shape-rendering="crispEdges"/><rect fill="#000000" x="1427.4" y="416.3" width="24.4" height="24.65" shape-rendering="crispEdges"/><rect fill="#191e24" x="1451.8" y="416.3" width="12.2" height="24.65" shape-rendering="crispEdges"/><rect fill="#191e24" x="0" y="440.7" width="12.2" height="24.65" shape-rendering="crispEdges"/><rect fill="#191e24" x="12.2" y="440.7" width="1415.2" height="24.65" shape-rendering="crispEdges"/><rect fill="#000000" x="1427.4" y="440.7" width="24.4" height="24.65" shape-rendering="crispEdges"/><rect fill="#191e24" x="1451.8" y="440.7" width="12.2" height="24.65" shape-rendering="crispEdges"/><rect fill="#191e24" x="0" y="465.1" width="12.2" height="24.65" shape-rendering="crispEdges"/><rect fill="#191e24" x="12.2" y="465.1" width="1415.2" height="24.65" shape-rendering="crispEdges"/><rect fill="#000000" x="1427.4" y="465.1" width="24.4" height="24.65" shape-rendering="crispEdges"/><rect fill="#191e24" x="1451.8" y="465.1" width="12.2" height="24.65" shape-rendering="crispEdges"/><rect fill="#191e24" x="0" y="489.5" width="12.2" height="24.65" shape-rendering="crispEdges"/><rect fill="#191e24" x="12.2" y="489.5" width="1415.2" height="24.65" shape-rendering="crispEdges"/><rect fill="#000000" x="1427.4" y="489.5" width="24.4" height="24.65" shape-rendering="crispEdges"/><rect fill="#191e24" x="1451.8" y="489.5" width="12.2" height="24.65" shape-rendering="crispEdges"/><rect fill="#191e24" x="0" y="513.9" width="12.2" height="24.65" shape-rendering="crispEdges"/><rect fill="#191e24" x="12.2" y="513.9" width="1415.2" height="24.65" shape-rendering="crispEdges"/><rect fill="#000000" x="1427.4" y="513.9" width="24.4" height="24.65" shape-rendering="crispEdges"/><rect fill="#191e24" x="1451.8" y="513.9" width="12.2" height="24.65" shape-rendering="crispEdges"/><rect fill="#191e24" x="0" y="538.3" width="12.2" height="24.65" shape-rendering="crispEdges"/><rect fill="#191e24" x="12.2" y="538.3" width="1415.2" height="24.65" shape-rendering="crispEdges"/><rect fill="#000000" x="1427.4" y="538.3" width="24.4" height="24.65" shape-rendering="crispEdges"/><rect fill="#191e24" x="1451.8" y="538.3" width="12.2" height="24.65" shape-rendering="crispEdges"/><rect fill="#191e24" x="0" y="562.7" width="12.2" height="24.65" shape-rendering="crispEdges"/><rect fill="#191e24" x="12.2" y="562.7" width="1415.2" height="24.65" shape-rendering="crispEdges"/><rect fill="#000000" x="1427.4" y="562.7" width="24.4" height="24.65" shape-rendering="crispEdges"/><rect fill="#191e24" x="1451.8" y="562.7" width="12.2" height="24.65" shape-rendering="crispEdges"/><rect fill="#191e24" x="0" y="587.1" width="12.2" height="24.65" shape-rendering="crispEdges"/><rect fill="#191e24" x="12.2" y="587.1" width="1415.2" height="24.65" shape-rendering="crispEdges"/><rect fill="#000000" x="1427.4" y="587.1" width="24.4" height="24.65" shape-rendering="crispEdges"/><rect fill="#191e24" x="1451.8" y="587.1" width="12.2" height="24.65" shape-rendering="crispEdges"/><rect fill="#191e24" x="0" y="611.5" width="12.2" height="24.65" shape-rendering="crispEdges"/><rect fill="#191e24" x="12.2" y="611.5" width="1415.2" height="24.65" shape-rendering="crispEdges"/><rect fill="#000000" x="1427.4" y="611.5" width="24.4" height="24.65" shape-rendering="crispEdges"/><rect fill="#191e24" x="1451.8" y="611.5" width="12.2" height="24.65" shape-rendering="crispEdges"/><rect fill="#191e24" x="0" y="635.9" width="12.2" height="24.65" shape-rendering="crispEdges"/><rect fill="#191e24" x="12.2" y="635.9" width="1415.2" height="24.65" shape-rendering="crispEdges"/><rect fill="#000000" x="1427.4" y="635.9" width="24.4" height="24.65" shape-rendering="crispEdges"/><rect fill="#191e24" x="1451.8" y="635.9" width="12.2" height="24.65" shape-rendering="crispEdges"/><rect fill="#191e24" x="0" y="660.3" width="12.2" height="24.65" shape-rendering="crispEdges"/><rect fill="#191e24" x="12.2" y="660.3" width="1415.2" height="24.65" shape-rendering="crispEdges"/><rect fill="#000000" x="1427.4" y="660.3" width="24.4" height="24.65" shape-rendering="crispEdges"/><rect fill="#191e24" x="1451.8" y="660.3" width="12.2" height="24.65" shape-rendering="crispEdges"/><rect fill="#191e24" x="0" y="684.7" width="12.2" height="24.65" shape-rendering="crispEdges"/><rect fill="#191e24" x="12.2" y="684.7" width="1415.2" height="24.65" shape-rendering="crispEdges"/><rect fill="#000000" x="1427.4" y="684.7" width="24.4" height="24.65" shape-rendering="crispEdges"/><rect fill="#191e24" x="1451.8" y="684.7" width="12.2" height="24.65" shape-rendering="crispEdges"/><rect fill="#191e24" x="0" y="709.1" width="12.2" height="24.65" shape-rendering="crispEdges"/><rect fill="#191e24" x="12.2" y="709.1" width="1415.2" height="24.65" shape-rendering="crispEdges"/><rect fill="#000000" x="1427.4" y="709.1" width="24.4" height="24.65" shape-rendering="crispEdges"/><rect fill="#191e24" x="1451.8" y="709.1" width="12.2" height="24.65" shape-rendering="crispEdges"/><rect fill="#191e24" x="0" y="733.5" width="12.2" height="24.65" shape-rendering="crispEdges"/><rect fill="#191e24" x="12.2" y="733.5" width="1415.2" height="24.65" shape-rendering="crispEdges"/><rect fill="#000000" x="1427.4" y="733.5" width="24.4" height="24.65" shape-rendering="crispEdges"/><rect fill="#191e24" x="1451.8" y="733.5" width="12.2" height="24.65" shape-rendering="crispEdges"/><rect fill="#191e24" x="0" y="757.9" width="1464" height="24.65" shape-rendering="crispEdges"/><rect fill="#0c1219" x="0" y="782.3" width="12.2" height="24.65" shape-rendering="crispEdges"/><rect fill="#0c1219" x="12.2" y="782.3" width="1439.6" height="24.65" shape-rendering="crispEdges"/><rect fill="#0c1219" x="1451.8" y="782.3" width="12.2" height="24.65" shape-rendering="crispEdges"/><rect fill="#0c1219" x="0" y="806.7" width="12.2" height="24.65" shape-rendering="crispEdges"/><rect fill="#0c1219" x="12.2" y="806.7" width="12.2" height="24.65" shape-rendering="crispEdges"/><rect fill="#0c1219" x="24.4" y="806.7" width="207.4" height="24.65" shape-rendering="crispEdges"/><rect fill="#0c1219" x="231.8" y="806.7" width="1207.8" height="24.65" shape-rendering="crispEdges"/><rect fill="#0c1219" x="1439.6" y="806.7" width="12.2" height="24.65" shape-rendering="crispEdges"/><rect fill="#0c1219" x="1451.8" y="806.7" width="12.2" height="24.65" shape-rendering="crispEdges"/><rect fill="#0c1219" x="0" y="831.1" width="12.2" height="24.65" shape-rendering="crispEdges"/><rect fill="#0c1219" x="12.2" y="831.1" width="1439.6" height="24.65" shape-rendering="crispEdges"/><rect fill="#0c1219" x="1451.8" y="831.1" width="12.2" height="24.65" shape-rendering="crispEdges"/><rect fill="#101a24" x="0" y="855.5" width="97.6" height="24.65" shape-rendering="crispEdges"/><rect fill="#101a24" x="97.6" y="855.5" width="61" height="24.65" shape-rendering="crispEdges"/><rect fill="#101a24" x="158.6" y="855.5" width="48.8" height="24.65" shape-rendering="crispEdges"/><rect fill="#101a24" x="207.4" y="855.5" width="73.2" height="24.65" shape-rendering="crispEdges"/><rect fill="#101a24" x="280.6" y="855.5" width="48.8" height="24.65" shape-rendering="crispEdges"/><rect fill="#101a24" x="329.4" y="855.5" width="73.2" height="24.65" shape-rendering="crispEdges"/><rect fill="#101a24" x="402.6" y="855.5" width="48.8" height="24.65" shape-rendering="crispEdges"/><rect fill="#101a24" x="451.4" y="855.5" width="73.2" height="24.65" shape-rendering="crispEdges"/><rect fill="#101a24" x="524.6" y="855.5" width="48.8" height="24.65" shape-rendering="crispEdges"/><rect fill="#101a24" x="573.4" y="855.5" width="73.2" height="24.65" shape-rendering="crispEdges"/><rect fill="#101a24" x="646.6" y="855.5" width="658.8" height="24.65" shape-rendering="crispEdges"/><rect fill="#101a24" x="1305.4" y="855.5" width="12.2" height="24.65" shape-rendering="crispEdges"/><rect fill="#101a24" x="1317.6" y="855.5" width="24.4" height="24.65" shape-rendering="crispEdges"/><rect fill="#101a24" x="1342" y="855.5" width="109.8" height="24.65" shape-rendering="crispEdges"/><rect fill="#101a24" x="1451.8" y="855.5" width="12.2" height="24.65" shape-rendering="crispEdges"/>
    <g class="terminal-864303689-matrix">
    <text class="terminal-864303689-r1" x="1464" y="20" textLength="12.2" clip-path="url(#terminal-864303689-line-0)">
</text><text class="terminal-864303689-r2" x="12.2" y="44.4" textLength="292.8" clip-path="url(#terminal-864303689-line-1)">Connecting&#160;to&#160;Agent&#160;Zero</text><text class="terminal-864303689-r3" x="305" y="44.4" textLength="36.6" clip-path="url(#terminal-864303689-line-1)">...</text><text class="terminal-864303689-r1" x="1464" y="44.4" textLength="12.2" clip-path="url(#terminal-864303689-line-1)">
</text><text class="terminal-864303689-r2" x="12.2" y="68.8" textLength="695.4" clip-path="url(#terminal-864303689-line-2)">Capabilities&#160;probe&#160;failed:&#160;All&#160;connection&#160;attempts&#160;failed</text><text class="terminal-864303689-r1" x="1464" y="68.8" textLength="12.2" clip-path="url(#terminal-864303689-line-2)">
</text><text class="terminal-864303689-r5" x="12.2" y="93.2" textLength="390.4" clip-path="url(#terminal-864303689-line-3)">No&#160;Agent&#160;Zero&#160;instance&#160;found&#160;at&#160;</text><text class="terminal-864303689-r6" x="402.6" y="93.2" textLength="268.4" clip-path="url(#terminal-864303689-line-3)">http://127.0.0.1:19999</text><text class="terminal-864303689-r1" x="1464" y="93.2" textLength="12.2" clip-path="url(#terminal-864303689-line-3)">
</text><text class="terminal-864303689-r2" x="12.2" y="117.6" textLength="817.4" clip-path="url(#terminal-864303689-line-4)">Check&#160;the&#160;URL,&#160;firewall,&#160;and&#160;TLS.&#160;If&#160;the&#160;server&#160;is&#160;up,&#160;install&#160;the&#160;</text><text class="terminal-864303689-r1" x="1464" y="117.6" textLength="12.2" clip-path="url(#terminal-864303689-line-4)">
</text><text class="terminal-864303689-r2" x="12.2" y="142" textLength="244" clip-path="url(#terminal-864303689-line-5)">a0_connector&#160;plugin&#160;</text><text class="terminal-864303689-r7" x="256.2" y="142" textLength="12.2" clip-path="url(#terminal-864303689-line-5)">(</text><text class="terminal-864303689-r2" x="268.4" y="142" textLength="122" clip-path="url(#terminal-864303689-line-5)">see&#160;README</text><text class="terminal-864303689-r7" x="390.4" y="142" textLength="12.2" clip-path="url(#terminal-864303689-line-5)">)</text><text class="terminal-864303689-r2" x="402.6" y="142" textLength="12.2" clip-path="url(#terminal-864303689-line-5)">.</text><text class="terminal-864303689-r1" x="1464" y="142" textLength="12.2" clip-path="url(#terminal-864303689-line-5)">
</text><text class="terminal-864303689-r1" x="1464" y="166.4" textLength="12.2" clip-path="url(#terminal-864303689-line-6)">
</text><text class="terminal-864303689-r1" x="1464" y="190.8" textLength="12.2" clip-path="url(#terminal-864303689-line-7)">
</text><text class="terminal-864303689-r1" x="1464" y="215.2" textLength="12.2" clip-path="url(#terminal-864303689-line-8)">
</text><text class="terminal-864303689-r1" x="1464" y="239.6" textLength="12.2" clip-path="url(#terminal-864303689-line-9)">
</text><text class="terminal-864303689-r1" x="1464" y="264" textLength="12.2" clip-path="url(#terminal-864303689-line-10)">
</text><text class="terminal-864303689-r1" x="1464" y="288.4" textLength="12.2" clip-path="url(#terminal-864303689-line-11)">
</text><text class="terminal-864303689-r1" x="1464" y="312.8" textLength="12.2" clip-path="url(#terminal-864303689-line-12)">
</text><text class="terminal-864303689-r1" x="1464" y="337.2" textLength="12.2" clip-path="url(#terminal-864303689-line-13)">
</text><text class="terminal-864303689-r1" x="1464" y="361.6" textLength="12.2" clip-path="url(#terminal-864303689-line-14)">
</text><text class="terminal-864303689-r1" x="1464" y="386" textLength="12.2" clip-path="url(#terminal-864303689-line-15)">
</text><text class="terminal-864303689-r1" x="1464" y="410.4" textLength="12.2" clip-path="url(#terminal-864303689-line-16)">
</text><text class="terminal-864303689-r1" x="1464" y="434.8" textLength="12.2" clip-path="url(#terminal-864303689-line-17)">
</text><text class="terminal-864303689-r1" x="1464" y="459.2" textLength="12.2" clip-path="url(#terminal-864303689-line-18)">
</text><text class="terminal-864303689-r1" x="1464" y="483.6" textLength="12.2" clip-path="url(#terminal-864303689-line-19)">
</text><text class="terminal-864303689-r1" x="1464" y="508" textLength="12.2" clip-path="url(#terminal-864303689-line-20)">
</text><text class="terminal-864303689-r1" x="1464" y="532.4" textLength="12.2" clip-path="url(#terminal-864303689-line-21)">
</text><text class="terminal-864303689-r1" x="1464" y="556.8" textLength="12.2" clip-path="url(#terminal-864303689-line-22)">
</text><text class="terminal-864303689-r1" x="1464" y="581.2" textLength="12.2" clip-path="url(#terminal-864303689-line-23)">
</text><text class="terminal-864303689-r1" x="1464" y="605.6" textLength="12.2" clip-path="url(#terminal-864303689-line-24)">
</text><text class="terminal-864303689-r1" x="1464" y="630" textLength="12.2" clip-path="url(#terminal-864303689-line-25)">
</text><text class="terminal-864303689-r1" x="1464" y="654.4" textLength="12.2" clip-path="url(#terminal-864303689-line-26)">
</text><text class="terminal-864303689-r1" x="1464" y="678.8" textLength="12.2" clip-path="url(#terminal-864303689-line-27)">
</text><text class="terminal-864303689-r1" x="1464" y="703.2" textLength="12.2" clip-path="url(#terminal-864303689-line-28)">
</text><text class="terminal-864303689-r1" x="1464" y="727.6" textLength="12.2" clip-path="url(#terminal-864303689-line-29)">
</text><text class="terminal-864303689-r1" x="1464" y="752" textLength="12.2" clip-path="url(#terminal-864303689-line-30)">
</text><text class="terminal-864303689-r8" x="0" y="776.4" textLength="1464" clip-path="url(#terminal-864303689-line-31)">────────────────────────────────────────────────────────────────────────────────────────────────────────────────────────</text><text class="terminal-864303689-r1" x="1464" y="776.4" textLength="12.2" clip-path="url(#terminal-864303689-line-31)">
</text><text class="terminal-864303689-r9" x="0" y="800.8" textLength="12.2" clip-path="url(#terminal-864303689-line-32)">╭</text><text class="terminal-864303689-r9" x="12.2" y="800.8" textLength="1439.6" clip-path="url(#terminal-864303689-line-32)">──────────────────────────────────────────────────────────────────────────────────────────────────────────────────────</text><text class="terminal-864303689-r9" x="1451.8" y="800.8" textLength="12.2" clip-path="url(#terminal-864303689-line-32)">╮</text><text class="terminal-864303689-r1" x="1464" y="800.8" textLength="12.2" clip-path="url(#terminal-864303689-line-32)">
</text><text class="terminal-864303689-r9" x="0" y="825.2" textLength="12.2" clip-path="url(#terminal-864303689-line-33)">│</text><text class="terminal-864303689-r10" x="24.4" y="825.2" textLength="207.4" clip-path="url(#terminal-864303689-line-33)">|&gt;&#160;&#160;⠦&#160;Using&#160;tool&#160;</text><text class="terminal-864303689-r9" x="1451.8" y="825.2" textLength="12.2" clip-path="url(#terminal-864303689-line-33)">│</text><text class="terminal-864303689-r1" x="1464" y="825.2" textLength="12.2" clip-path="url(#terminal-864303689-line-33)">
</text><text class="terminal-864303689-r9" x="0" y="849.6" textLength="12.2" clip-path="url(#terminal-864303689-line-34)">╰</text><text class="terminal-864303689-r9" x="12.2" y="849.6" textLength="1439.6" clip-path="url(#terminal-864303689-line-34)">──────────────────────────────────────────────────────────────────────────────────────────────────────────────────────</text><text class="terminal-864303689-r9" x="1451.8" y="849.6" textLength="12.2" clip-path="url(#terminal-864303689-line-34)">╯</text><text class="terminal-864303689-r1" x="1464" y="849.6" textLength="12.2" clip-path="url(#terminal-864303689-line-34)">
</text><text class="terminal-864303689-r11" x="0" y="874" textLength="97.6" clip-path="url(#terminal-864303689-line-35)">&#160;Ctrl+C&#160;</text><text class="terminal-864303689-r4" x="97.6" y="874" textLength="61" clip-path="url(#terminal-864303689-line-35)">Exit&#160;</text><text class="terminal-864303689-r11" x="158.6" y="874" textLength="48.8" clip-path="url(#terminal-864303689-line-35)">&#160;F5&#160;</text><text class="terminal-864303689-r4" x="207.4" y="874" textLength="73.2" clip-path="url(#terminal-864303689-line-35)">Clear&#160;</text><text class="terminal-864303689-r11" x="280.6" y="874" textLength="48.8" clip-path="url(#terminal-864303689-line-35)">&#160;F6&#160;</text><text class="terminal-864303689-r4" x="329.4" y="874" textLength="73.2" clip-path="url(#terminal-864303689-line-35)">Chats&#160;</text><text class="terminal-864303689-r11" x="402.6" y="874" textLength="48.8" clip-path="url(#terminal-864303689-line-35)">&#160;F7&#160;</text><text class="terminal-864303689-r4" x="451.4" y="874" textLength="73.2" clip-path="url(#terminal-864303689-line-35)">Nudge&#160;</text><text class="terminal-864303689-r11" x="524.6" y="874" textLength="48.8" clip-path="url(#terminal-864303689-line-35)">&#160;F8&#160;</text><text class="terminal-864303689-r4" x="573.4" y="874" textLength="73.2" clip-path="url(#terminal-864303689-line-35)">Pause&#160;</text><text class="terminal-864303689-r12" x="1305.4" y="874" textLength="12.2" clip-path="url(#terminal-864303689-line-35)">▏</text><text class="terminal-864303689-r11" x="1317.6" y="874" textLength="24.4" clip-path="url(#terminal-864303689-line-35)">^P</text><text class="terminal-864303689-r4" x="1342" y="874" textLength="109.8" clip-path="url(#terminal-864303689-line-35)">&#160;Commands</text>
    </g>
    </g>
</svg>
